<?xml version="1.0" encoding="UTF-8" standalone="no"?>
<!DOCTYPE svg PUBLIC "-//W3C//DTD SVG 1.1//EN"
 "http://www.w3.org/Graphics/SVG/1.1/DTD/svg11.dtd">
<!-- Generated by graphviz version 2.40.1 (20161225.0304)
 -->
<!-- Title: dependencies Pages: 1 -->
<svg width="544pt" height="284pt"
 viewBox="0.00 0.00 544.00 284.00" xmlns="http://www.w3.org/2000/svg" xmlns:xlink="http://www.w3.org/1999/xlink">
<g id="graph0" class="graph" transform="scale(1 1) rotate(0) translate(4 280)">
<title>dependencies</title>
<polygon fill="#ffffff" stroke="transparent" points="-4,4 -4,-280 540,-280 540,4 -4,4"/>
<text text-anchor="start" x="247.0091" y="-42.4" font-family="sans-serif" font-weight="bold" font-size="14.00" fill="#000000">Legend</text>
<polygon fill="#ffffb3" stroke="transparent" points="34,-10 34,-30 54,-30 54,-10 34,-10"/>
<text text-anchor="start" x="57.629" y="-15.4" font-family="sans-serif" font-size="14.00" fill="#000000"> &#160;Declarations</text>
<polygon fill="#8dd3c7" stroke="transparent" points="147,-10 147,-30 167,-30 167,-10 147,-10"/>
<text text-anchor="start" x="170.7251" y="-15.4" font-family="sans-serif" font-size="14.00" fill="#000000"> &#160;Module</text>
<polygon fill="#80b1d3" stroke="transparent" points="233,-10 233,-30 253,-30 253,-10 233,-10"/>
<text text-anchor="start" x="256.7812" y="-15.4" font-family="sans-serif" font-size="14.00" fill="#000000"> &#160;Bootstrap</text>
<polygon fill="#fdb462" stroke="transparent" points="330,-10 330,-30 350,-30 350,-10 330,-10"/>
<text text-anchor="start" x="353.6732" y="-15.4" font-family="sans-serif" font-size="14.00" fill="#000000"> &#160;Providers</text>
<polygon fill="#fb8072" stroke="transparent" points="426,-10 426,-30 446,-30 446,-10 426,-10"/>
<text text-anchor="start" x="449.7258" y="-15.4" font-family="sans-serif" font-size="14.00" fill="#000000"> &#160;Exports</text>
<g id="clust1" class="cluster">
<title>cluster_AppModule</title>
<polygon fill="none" stroke="#000000" stroke-dasharray="1,5" points="8,-70 8,-268 528,-268 528,-70 8,-70"/>
</g>
<g id="clust2" class="cluster">
<title>cluster_AppModule_declarations</title>
<polygon fill="none" stroke="#000000" points="182,-78 182,-130 520,-130 520,-78 182,-78"/>
</g>
<g id="clust7" class="cluster">
<title>cluster_AppModule_bootstrap</title>
<polygon fill="none" stroke="#000000" points="227,-208 227,-260 351,-260 351,-208 227,-208"/>
</g>
<g id="clust8" class="cluster">
<title>cluster_AppModule_providers</title>
<polygon fill="none" stroke="#000000" points="16,-78 16,-130 174,-130 174,-78 16,-78"/>
</g>
<!-- AppComponent -->
<g id="node1" class="node">
<title>AppComponent</title>
<polygon fill="#ffffb3" stroke="#000000" points="511.9399,-122 406.0601,-122 406.0601,-86 511.9399,-86 511.9399,-122"/>
<text text-anchor="middle" x="459" y="-99.8" font-family="Times,serif" font-size="14.00" fill="#000000">AppComponent</text>
</g>
<!-- AppModule -->
<g id="node3" class="node">
<title>AppModule</title>
<polygon fill="#8dd3c7" stroke="#000000" points="330.6571,-187 327.6571,-191 306.6571,-191 303.6571,-187 247.3429,-187 247.3429,-151 330.6571,-151 330.6571,-187"/>
<text text-anchor="middle" x="289" y="-164.8" font-family="Times,serif" font-size="14.00" fill="#000000">AppModule</text>
</g>
<!-- AppComponent&#45;&gt;AppModule -->
<g id="edge1" class="edge">
<title>AppComponent&#45;&gt;AppModule</title>
<path fill="none" stroke="#000000" d="M459,-122.1061C459,-141.3391 459,-169 459,-169 459,-169 341.0225,-169 341.0225,-169"/>
<polygon fill="#000000" stroke="#000000" points="341.0225,-165.5001 331.0225,-169 341.0224,-172.5001 341.0225,-165.5001"/>
</g>
<!-- ComponentListagemComponent -->
<g id="node2" class="node">
<title>ComponentListagemComponent</title>
<polygon fill="#ffffb3" stroke="#000000" points="388.2631,-122 189.7369,-122 189.7369,-86 388.2631,-86 388.2631,-122"/>
<text text-anchor="middle" x="289" y="-99.8" font-family="Times,serif" font-size="14.00" fill="#000000">ComponentListagemComponent</text>
</g>
<!-- ComponentListagemComponent&#45;&gt;AppModule -->
<g id="edge2" class="edge">
<title>ComponentListagemComponent&#45;&gt;AppModule</title>
<path fill="none" stroke="#000000" d="M289,-122.1061C289,-122.1061 289,-140.991 289,-140.991"/>
<polygon fill="#000000" stroke="#000000" points="285.5001,-140.9909 289,-150.991 292.5001,-140.991 285.5001,-140.9909"/>
</g>
<!-- AppComponent  -->
<g id="node4" class="node">
<title>AppComponent </title>
<polygon fill="#80b1d3" stroke="#000000" points="343.439,-252 234.561,-252 234.561,-216 343.439,-216 343.439,-252"/>
<text text-anchor="middle" x="289" y="-229.8" font-family="Times,serif" font-size="14.00" fill="#000000">AppComponent </text>
</g>
<!-- AppModule&#45;&gt;AppComponent  -->
<g id="edge3" class="edge">
<title>AppModule&#45;&gt;AppComponent </title>
<path fill="none" stroke="#000000" stroke-dasharray="1,5" d="M289,-187.1061C289,-187.1061 289,-205.991 289,-205.991"/>
<polygon fill="#000000" stroke="#000000" points="285.5001,-205.9909 289,-215.991 292.5001,-205.991 285.5001,-205.9909"/>
</g>
<!-- ContatoService -->
<g id="node5" class="node">
<title>ContatoService</title>
<ellipse fill="#fdb462" stroke="#000000" cx="95" cy="-104" rx="70.6432" ry="18"/>
<text text-anchor="middle" x="95" y="-99.8" font-family="Times,serif" font-size="14.00" fill="#000000">ContatoService</text>
</g>
<!-- ContatoService&#45;&gt;AppModule -->
<g id="edge4" class="edge">
<title>ContatoService&#45;&gt;AppModule</title>
<path fill="none" stroke="#000000" d="M95,-122.1061C95,-141.3391 95,-169 95,-169 95,-169 236.9049,-169 236.9049,-169"/>
<polygon fill="#000000" stroke="#000000" points="236.9049,-172.5001 246.9049,-169 236.9049,-165.5001 236.9049,-172.5001"/>
</g>
</g>
</svg>
